<?xml version="1.0" standalone="no"?><!DOCTYPE svg PUBLIC "-//W3C//DTD SVG 1.1//EN" "http://www.w3.org/Graphics/SVG/1.1/DTD/svg11.dtd"><svg t="1740140135297" class="icon" viewBox="0 0 1024 1024" version="1.1" xmlns="http://www.w3.org/2000/svg" p-id="699" data-darkreader-inline-fill="" xmlns:xlink="http://www.w3.org/1999/xlink" width="28" height="28"><path d="M512 0A512 512 0 1 1 0 512 512 512 0 0 1 512 0z" fill="#FF2B2B" p-id="700" data-darkreader-inline-fill="" style="--darkreader-inline-fill: #a5423c;"></path><path d="M371.151238 794.428952v47.786667c0 21.016381 4.437333 28.233143 17.066667 28.233143h247.271619c12.53181 0 17.066667-7.314286 17.066666-28.233143v-73.874286H371.151238z" fill="#FFFFFF" p-id="701" data-darkreader-inline-fill="" style="--darkreader-inline-fill: #d1c9ba;"></path><path d="M706.511238 691.321905h-1.097143c0-35.961905 1.487238-272.262095-6.265905-354.718476-5.729524-60.952381-89.84381-129.219048-122.489904-140.385524v-2.511238a7.314286 7.314286 0 0 0-7.314286-7.314286h-22.503619a42.25219 42.25219 0 0 0-68.803048-7.558095c-20.650667 0.365714-98.499048 1.487238-156.038095-2.218667-8.850286-0.365714-8.850286 0-13.458286 4.876191a33.206857 33.206857 0 0 0-1.097142 27.477333 7.558095 7.558095 0 0 0 5.534476 2.218667s21.016381-8.118857 127.097904-7.314286c2.950095 0 6.265905 4.437333 0 7.753143a956.757333 956.757333 0 0 1-94.915047 40.594285 16.408381 16.408381 0 0 0-8.850286 9.216 83.017143 83.017143 0 0 0-1.852952 17.334858 7.021714 7.021714 0 0 0 9.971809 5.90019 600.990476 600.990476 0 0 1 110.689524-55.344762 26.819048 26.819048 0 0 1 14.019048-1.097143v82.16381a107.27619 107.27619 0 0 0-98.133334 106.25219v326.704762h281.868191v-326.704762a107.715048 107.715048 0 0 0-102.936381-106.617905V234.032762h19.504762a7.314286 7.314286 0 0 0 7.314286-6.631619c30.98819 21.77219 92.233143 70.460952 96.109714 121.368381 5.339429 60.513524 6.095238 305.834667 6.265905 342.552381a6.265905 6.265905 0 0 0-6.265905 6.265905v92.233142a6.265905 6.265905 0 0 0 6.265905 6.265905h28.184381a6.460952 6.460952 0 0 0 6.265904-6.265905v-92.233142a6.265905 6.265905 0 0 0-7.021714-6.265905z" fill="#FFFFFF" p-id="702" data-darkreader-inline-fill="" style="--darkreader-inline-fill: #d1c9ba;"></path></svg>