<?xml version="1.0" standalone="no"?><!DOCTYPE svg PUBLIC "-//W3C//DTD SVG 1.1//EN" "http://www.w3.org/Graphics/SVG/1.1/DTD/svg11.dtd"><svg t="1740140947423" class="icon" viewBox="0 0 1024 1024" version="1.1" xmlns="http://www.w3.org/2000/svg" p-id="1457" data-darkreader-inline-fill="" width="40" height="40" xmlns:xlink="http://www.w3.org/1999/xlink"><path d="M724.888924 608.338326a80.720063 80.720063 0 0 1-7.965047 6.258251l-3.777708 2.730874C532.043754 745.337137 513.621738 894.738664 512.051486 934.450113c0-0.341359 0-0.682718-0.07965-1.137864-10.8666-161.349098-141.004092-271.949466-187.986491-306.768101a341.450192 341.450192 0 1 1 400.903579-18.205822zM512.01735 944.690888s-0.182058-3.641164 0.079651-10.240775C525.22795 1129.707554 512.01735 944.690888 512.01735 944.690888z" fill="#EE6B02" p-id="1458" data-darkreader-inline-fill="" style="--darkreader-inline-fill: #8f6239;"></path><path d="M512.01735 0.263871a341.268134 341.268134 0 0 1 212.871574 608.074455 80.720063 80.720063 0 0 1-7.965047 6.258251l-3.777708 2.730874a647.956584 647.956584 0 0 0-33.987994 25.82951l-405.193326-546.174661A340.118891 340.118891 0 0 1 512.01735 0.263871z" fill="#FFFFFF" opacity=".2" p-id="1459" data-darkreader-inline-fill="" style="--darkreader-inline-fill: #d1c9ba;"></path><path d="M607.245178 486.017959h22.256617V320.572552c1.228893-0.568932 2.469165-1.25165 3.709437-1.820582 8.295028-8.647765 36.809896-2.048155 46.367953 0 2.469165 4.892815 4.949708 9.899416 7.418872 14.79223v152.473759a211.642681 211.642681 0 0 1 35.27378 1.820583c0.625825 1.934369 1.240272 3.754951 1.854718 5.575533 8.101591 7.851261 1.888854 28.219024 0 37.208148a497.542358 497.542358 0 0 1-83.462315 3.754951h-233.71724a497.599252 497.599252 0 0 1-83.462315-3.754951 62.468727 62.468727 0 0 1-3.709437-31.632615h1.854718l1.854719-9.216698a101.133341 101.133341 0 0 1 37.094362-3.754951c-0.113786-111.396873-3.311184-228.141707 1.854718-336.466348 4.483184-3.072232 1.137864-1.479223 3.709436-5.575533h1.854718v-3.754951c1.854718-1.25165 3.709436-2.389514 5.564155-3.641164v-1.934369h3.709436c0.625825-1.25165 1.240272-2.503301 1.854718-3.641164 11.799648-7.282329 38.550828-5.575533 57.50764-5.575533h87.171752a193.436859 193.436859 0 0 1 44.513235 1.820582h11.128309v1.820582h5.564154c4.949708 3.754951 9.899416 7.509902 14.79223 11.151066 12.584774 18.433395 7.418872 69.751056 7.418873 100.473381v245.323451zM462.565786 168.098792v3.754951c-1.240272 0.568932-2.480543 1.25165-3.709436 1.820582v31.632616a211.642681 211.642681 0 0 0-35.27378 1.820582c-0.625825 1.934369-1.240272 3.754951-1.866097 5.575533-6.918212 6.827183-2.935689 25.715724-1.854718 35.387567 2.480543 1.820582 4.949708 3.754951 7.430251 5.575533v1.820582h31.530208v31.632616c2.469165 1.820582 4.938329 3.754951 7.418873 5.575533a102.134662 102.134662 0 0 0 35.27378 1.820582c1.854718-2.389514 3.709436-4.892815 5.564154-7.396115h1.854718v-31.632616H540.463947c3.09499-3.641164 6.189979-7.396115 9.273591-11.151066 0.568932-15.13359 2.446407-33.908344-9.273591-37.208149-4.676621-4.210096-23.257938-2.048155-31.530208-1.820582v-31.632616c-1.240272-0.568932-2.469165-1.25165-3.709436-1.820582v-3.754951h-3.709436c-0.614446-1.25165-1.240272-2.389514-1.854718-3.641164h-31.530208c-0.625825 1.25165-1.240272 2.389514-1.854719 3.641164h-3.709436z m-31.530208 187.74754a288.619172 288.619172 0 0 0-1.854718 44.71805 26.07984 26.07984 0 0 1 3.709436 3.641165h3.709437c16.260075-0.682718 20.709123-0.568932 22.256617-3.641165v-40.963099a37.754323 37.754323 0 0 1-5.564154-5.575533h-18.547182c-2.116427 2.161941-0.011379 0.796505-3.709436 1.820582z m83.462315-1.820582a39.711449 39.711449 0 0 1-5.564154 5.575533v40.963099a26.07984 26.07984 0 0 1 3.709436 3.641165h3.709437c17.38656 1.25165 20.709123-0.568932 22.256617-3.641165v-40.963099a37.754323 37.754323 0 0 1-5.564154-5.575533h-18.547182z m-81.607597 70.661346c-5.313824 10.240775-3.857359 30.608538-3.709436 46.424847a45.764885 45.764885 0 0 0 25.966054 3.75495c5.313824-10.240775 3.84598-30.608538 3.709436-46.424846a45.787642 45.787642 0 0 0-25.966054-3.754951z m79.752879 0c-5.313824 10.240775-3.84598 30.608538-3.709436 46.424847a45.787642 45.787642 0 0 0 25.966054 3.75495c5.313824-10.240775 3.84598-30.608538 3.709436-46.424846a45.764885 45.764885 0 0 0-25.966054-3.754951z" fill="#FFFFFF" p-id="1460" data-darkreader-inline-fill="" style="--darkreader-inline-fill: #d1c9ba;"></path></svg>