<?xml version="1.0" standalone="no"?><!DOCTYPE svg PUBLIC "-//W3C//DTD SVG 1.1//EN" "http://www.w3.org/Graphics/SVG/1.1/DTD/svg11.dtd"><svg t="1740140976202" class="icon" viewBox="0 0 1025 1024" version="1.1" xmlns="http://www.w3.org/2000/svg" p-id="14846" data-darkreader-inline-fill="" width="28.02734375" height="28" xmlns:xlink="http://www.w3.org/1999/xlink"><path d="M404.604878 311.895415c-42.458537 20.180293-76.125659 55.146146-94.807415 98.304-5.394732 12.487805 0.39961 26.973659 12.887415 32.36839 3.196878 1.398634 6.493659 1.998049 9.790439 1.998049 9.590634 0 18.581854-5.494634 22.677854-14.885464 13.886439-32.268488 39.061854-58.243122 70.830829-73.428292 12.288-5.894244 17.482927-20.579902 11.588683-32.768s-20.579902-17.482927-32.967805-11.588683zM657.457951 462.548293c-13.586732 0-24.675902 10.989268-24.675902 24.675902 0 79.822049-64.936585 144.758634-144.758634 144.758634-13.586732 0-24.675902 10.989268-24.675903 24.675903 0 13.586732 10.989268 24.675902 24.675903 24.675902 51.849366 0 100.501854-20.180293 137.166048-56.844488 36.664195-36.664195 56.844488-85.416585 56.844488-137.166048 0-13.786537-10.989268-24.775805-24.576-24.775805z" fill="#FFFFFF" p-id="14847" data-darkreader-inline-fill="" style="--darkreader-inline-fill: #d1c9ba;"></path><path d="M1024 824.195122c0 109.892683-89.912195 199.804878-199.804878 199.804878H200.803902C90.91122 1024 0.999024 934.087805 0.999024 824.195122V200.803902C0.999024 90.91122 90.91122 0.999024 200.803902 0.999024h623.39122c109.892683 0 199.804878 89.912195 199.804878 199.804878v623.39122z" fill="#44A7DF" p-id="14848" data-darkreader-inline-fill="" style="--darkreader-inline-fill: #4c85a0;"></path><path d="M534.478049 617.996488c0.199805-5.594537-1.898146-11.089171-5.694439-15.085268-3.796293-3.596488-8.891317-5.594537-14.086244-5.29483H366.442146c-10.389854-0.599415-19.281171 7.492683-19.880585 18.082342V658.756683c-0.599415 10.589659 7.292878 19.780683 17.582829 20.380097H514.597463c10.389854 0.599415 19.281171-7.492683 19.880586-18.082341V617.996488z m-31.768976 28.472195H378.430439v-20.380098h124.278634v20.380098zM534.478049 348.55961c0.199805-5.594537-1.898146-11.089171-5.694439-15.085269-3.796293-3.69639-8.891317-5.594537-14.086244-5.294829H366.442146c-10.389854-0.599415-19.281171 7.492683-19.880585 18.082342V389.319805c-0.599415 10.589659 7.292878 19.780683 17.582829 20.380097H514.597463c10.389854 0.599415 19.281171-7.492683 19.880586-18.082341V348.55961z m-31.768976 28.572097H378.430439v-20.380097h124.278634v20.380097zM534.478049 483.328c0.199805-5.594537-1.898146-11.089171-5.694439-15.085268-3.796293-3.69639-8.891317-5.594537-14.086244-5.29483H366.442146c-10.389854-0.599415-19.281171 7.492683-19.880585 18.082342V524.088195c-0.599415 10.589659 7.292878 19.780683 17.582829 20.380098H514.597463c10.389854 0.599415 19.281171-7.492683 19.880586-18.082342V483.328z m-31.768976 28.771902H378.430439v-20.380097h124.278634v20.380097z" fill="#FFFFFF" p-id="14849" data-darkreader-inline-fill="" style="--darkreader-inline-fill: #d1c9ba;"></path><path d="M813.006049 796.022634h-33.267512V367.740878c0.499512-30.370341-22.977561-55.445854-52.648586-56.045268H619.594927v-76.425366c-0.199805-24.276293-19.281171-43.857171-42.958049-44.056976H282.22439c-21.578927 0.79922-39.161756 17.882537-41.059902 39.960976v560.452683h-31.169561c-10.789463 0-19.480976 8.99122-19.480976 19.980488 0 11.089171 8.691512 19.980488 19.480976 19.980487h593.52039c11.688585 0 27.273366-3.996098 27.273366-16.084292 0.299707-10.289951-7.692488-19.081366-17.782634-19.480976zM576.73678 235.270244v556.856195H280.126439V235.270244c-0.099902-2.197854 1.598439-3.996098 3.796293-3.996098h288.917853c2.097951-0.099902 3.896195 1.698341 3.896195 3.896195v0.099903z m167.736196 560.852293H615.698732V339.768195h105.29717c12.587707 0.899122 22.577951 11.189073 23.477074 24.076488v432.277854z" fill="#FFFFFF" p-id="14850" data-darkreader-inline-fill="" style="--darkreader-inline-fill: #d1c9ba;"></path><path d="M671.843902 393.61561h37.962927v102.100292h-37.962927zM671.843902 575.238244h37.962927V677.338537h-37.962927z" fill="#FFFFFF" p-id="14851" data-darkreader-inline-fill="" style="--darkreader-inline-fill: #d1c9ba;"></path></svg>