<?xml version="1.0" standalone="no"?><!DOCTYPE svg PUBLIC "-//W3C//DTD SVG 1.1//EN" "http://www.w3.org/Graphics/SVG/1.1/DTD/svg11.dtd"><svg t="1740141825492" class="icon" viewBox="0 0 1024 1024" version="1.1" xmlns="http://www.w3.org/2000/svg" p-id="31199" data-darkreader-inline-fill="" width="36" height="36" xmlns:xlink="http://www.w3.org/1999/xlink"><path d="M245.12087 879.792271c0 79.611425 119.534443 144.207729 266.987628 144.207729s266.987628-64.557202 266.987628-144.168627-119.534443-144.168627-266.987628-144.168627-266.987628 64.478998-266.987628 144.129525z" fill="#08C3B8" opacity=".5" p-id="31200" data-darkreader-inline-fill="" style="--darkreader-inline-fill: #42776e;"></path><path d="M254.974544 106.748129a362.865435 362.865435 0 0 1 514.072399 0c141.978922 142.330839 108.898732 373.071025-33.041087 515.401863L512.030295 879.792271l-224.014664-257.681381c-141.978922-142.291737-175.098213-373.031923-33.041087-515.362761z" fill="#08C3B8" p-id="31201" data-darkreader-inline-fill="" style="--darkreader-inline-fill: #42776e;"></path><path d="M610.567029 138.733466a247.788605 247.788605 0 0 0-197.112571 0L301.31027 187.337101v138.459753a272.305483 272.305483 0 0 0 15.640752 92.436841 294.906369 294.906369 0 0 0 43.794104 80.628074 289.353903 289.353903 0 0 0 67.255231 64.127081 251.972506 251.972506 0 0 0 83.990836 37.185887 252.910952 252.910952 0 0 0 83.756224-37.02948 288.180846 288.180846 0 0 0 67.255231-64.127081 295.297388 295.297388 0 0 0 43.950512-80.901787 273.439438 273.439438 0 0 0 15.875363-92.554147V187.337101z m18.53429 162.429204L577.447738 351.52589a3.910188 3.910188 0 0 0-1.094853 3.323659l12.199786 71.087216a7.546663 7.546663 0 0 1-10.909424 7.820376l-63.853368-33.549412a3.910188 3.910188 0 0 0-3.480067 0l-63.853368 33.549412a7.507561 7.507561 0 0 1-10.909424-7.820376l12.199786-71.087216a3.910188 3.910188 0 0 0-1.094853-3.323659L394.95927 301.201772a7.507561 7.507561 0 0 1 4.183901-12.864518l71.40003-10.361998a3.675577 3.675577 0 0 0 2.815335-2.0724l31.907134-64.713609a7.546663 7.546663 0 0 1 13.490148 0l31.907133 64.713609a3.910188 3.910188 0 0 0 2.815335 2.0724l71.400031 10.361998a7.546663 7.546663 0 0 1 4.223002 12.864518z" fill="#FFFFFF" p-id="31202" data-darkreader-inline-fill="" style="--darkreader-inline-fill: #d1c9ba;"></path></svg>