<?xml version="1.0" standalone="no"?><!DOCTYPE svg PUBLIC "-//W3C//DTD SVG 1.1//EN" "http://www.w3.org/Graphics/SVG/1.1/DTD/svg11.dtd"><svg t="1740140916179" class="icon" viewBox="0 0 1024 1024" version="1.1" xmlns="http://www.w3.org/2000/svg" p-id="1290" data-darkreader-inline-fill="" xmlns:xlink="http://www.w3.org/1999/xlink" width="32" height="32"><path d="M950.784 442.88c0-243.2-197.12-440.32-440.32-440.32S70.144 199.68 70.144 442.88c0 153.6 78.336 288.256 197.632 367.104L510.464 1016.32l242.688-206.336c118.784-78.848 197.632-214.016 197.632-367.104z" fill="#BD98FC" p-id="1291" data-darkreader-inline-fill="" style="--darkreader-inline-fill: #926dbb;"></path><path d="M336.464 424.32h118.4v39.36h-118.4v-39.36z m239.76 0a21.328 21.328 0 0 1 19.536 11.84 18.336 18.336 0 0 1-4.144 21.296 23.968 23.968 0 0 1-22.8 4.736 20.72 20.72 0 0 1-13.6-18.048 21.312 21.312 0 0 1 21.008-19.84z m67.488 0a21.6 21.6 0 0 1 21.904 18.928 21.312 21.312 0 0 1-20.128 20.432 21.6 21.6 0 0 1-21.904-18.944 20.72 20.72 0 0 1 20.128-20.416z m-374.736 86.72H740.8v-134.08H267.2l1.776 134.08zM336.464 255.36h118.4v39.36h-118.4v-39.36z m239.76 0a21.328 21.328 0 0 1 19.536 11.84 18.336 18.336 0 0 1-4.144 21.312 23.968 23.968 0 0 1-22.8 4.736 20.72 20.72 0 0 1-13.6-18.048 21.312 21.312 0 0 1 21.008-19.84z m67.488 0a21.6 21.6 0 0 1 21.904 18.944 21.312 21.312 0 0 1-20.128 20.432 21.6 21.6 0 0 1-21.904-18.944 20.72 20.72 0 0 1 20.128-20.432z m-374.736 86.72H740.8V224a16 16 0 0 0-16-16H283.408a16 16 0 0 0-16 16.208l1.568 117.888zM336.464 591.36h118.4v39.36h-118.4v-39.36z m239.76 0a21.328 21.328 0 0 1 19.536 11.84 18.336 18.336 0 0 1-4.144 21.312 23.968 23.968 0 0 1-22.8 4.736 20.72 20.72 0 0 1-13.6-18.064 21.312 21.312 0 0 1 21.008-19.824z m67.488 0a21.6 21.6 0 0 1 21.904 18.944 21.312 21.312 0 0 1-20.128 20.416 21.6 21.6 0 0 1-21.904-18.944 20.72 20.72 0 0 1 20.128-20.416z m-374.944 70.944a16 16 0 0 0 16 15.776H724.8a16 16 0 0 0 16-16V544H267.2l1.568 118.304z" fill="#FFFFFF" p-id="1292" data-darkreader-inline-fill="" style="--darkreader-inline-fill: #d1c9ba;"></path></svg>