<?xml version="1.0" standalone="no"?><!DOCTYPE svg PUBLIC "-//W3C//DTD SVG 1.1//EN" "http://www.w3.org/Graphics/SVG/1.1/DTD/svg11.dtd"><svg t="1740140771296" class="icon" viewBox="0 0 1024 1024" version="1.1" xmlns="http://www.w3.org/2000/svg" p-id="863" data-darkreader-inline-fill="" width="36" height="36" xmlns:xlink="http://www.w3.org/1999/xlink"><path d="M512 962.56c251.904-208.896 378.88-382.976 378.88-522.24C890.88 231.424 720.896 61.44 512 61.44S133.12 231.424 133.12 440.32c0 139.264 126.976 313.344 378.88 522.24z" fill="#ff4e4e" p-id="864" data-darkreader-inline-fill="" style="--darkreader-inline-fill: #b24f48;"></path><path d="M733.184 280.576v104.448c0 77.824-63.488 141.312-141.312 141.312H450.56c-77.824 0-141.312-63.488-141.312-141.312v-104.448h-34.816V245.76h491.52v34.816h-32.768zM452.608 667.648c0 26.624 16.384 32.768 34.816 32.768V737.28c-38.912 0-69.632-22.528-69.632-69.632v-34.816c-2.048-18.432-12.288-34.816-34.816-34.816v-34.816c73.728-2.048 71.68 79.872 69.632 104.448z m34.816-71.68v-34.816c73.728 0 73.728 81.92 69.632 106.496 0 26.624 16.384 32.768 34.816 32.768V737.28c-38.912 0-69.632-22.528-69.632-69.632v-34.816c-2.048-18.432-12.288-36.864-34.816-36.864z m104.448 0v-34.816c73.728 0 73.728 81.92 69.632 106.496 0 26.624 16.384 32.768 34.816 32.768V737.28c-38.912 0-69.632-22.528-69.632-69.632v-34.816c-2.048-18.432-10.24-36.864-34.816-36.864z" fill="#ffffff" p-id="865" data-darkreader-inline-fill="" style="--darkreader-inline-fill: #d1c9ba;"></path><path d="M591.872 387.072h71.68v-36.864h-71.68zM487.424 387.072h69.632v-36.864h-69.632zM382.976 350.208h69.632v36.864h-71.68z" fill="#ff4e4e" p-id="866" data-darkreader-inline-fill="" style="--darkreader-inline-fill: #b24f48;"></path></svg>